%TF.GenerationSoftware,KiCad,Pcbnew,5.1.7-a382d34a8~88~ubuntu18.04.1*%
%TF.CreationDate,2021-04-14T12:48:07-04:00*%
%TF.ProjectId,Pressure_Switch,50726573-7375-4726-955f-537769746368,rev?*%
%TF.SameCoordinates,Original*%
%TF.FileFunction,Legend,Top*%
%TF.FilePolarity,Positive*%
%FSLAX46Y46*%
G04 Gerber Fmt 4.6, Leading zero omitted, Abs format (unit mm)*
G04 Created by KiCad (PCBNEW 5.1.7-a382d34a8~88~ubuntu18.04.1) date 2021-04-14 12:48:07*
%MOMM*%
%LPD*%
G01*
G04 APERTURE LIST*
%ADD10C,0.200000*%
%ADD11C,0.120000*%
%ADD12C,0.150000*%
G04 APERTURE END LIST*
D10*
X156352857Y-92201904D02*
X156352857Y-90678095D01*
X159258095Y-89042857D02*
X160781904Y-89042857D01*
X160020000Y-89804761D02*
X160020000Y-88280952D01*
D11*
%TO.C,SW4*%
X153797000Y-84074000D02*
X138811000Y-84074000D01*
X153797000Y-96520000D02*
X138811000Y-96520000D01*
X153797000Y-84074000D02*
X153797000Y-96520000D01*
X138811000Y-96520000D02*
X138811000Y-84074000D01*
%TO.C,SW3*%
X137287000Y-84074000D02*
X122301000Y-84074000D01*
X137287000Y-96520000D02*
X122301000Y-96520000D01*
X137287000Y-84074000D02*
X137287000Y-96520000D01*
X122301000Y-96520000D02*
X122301000Y-84074000D01*
%TO.C,SW2*%
X120777000Y-84074000D02*
X105791000Y-84074000D01*
X120777000Y-96520000D02*
X105791000Y-96520000D01*
X120777000Y-84074000D02*
X120777000Y-96520000D01*
X105791000Y-96520000D02*
X105791000Y-84074000D01*
%TO.C,SW1*%
X104267000Y-84074000D02*
X89281000Y-84074000D01*
X104267000Y-96520000D02*
X89281000Y-96520000D01*
X104267000Y-84074000D02*
X104267000Y-96520000D01*
X89281000Y-96520000D02*
X89281000Y-84074000D01*
%TO.C,SW4*%
D12*
X146835761Y-90995333D02*
X146883380Y-90852476D01*
X146883380Y-90614380D01*
X146835761Y-90519142D01*
X146788142Y-90471523D01*
X146692904Y-90423904D01*
X146597666Y-90423904D01*
X146502428Y-90471523D01*
X146454809Y-90519142D01*
X146407190Y-90614380D01*
X146359571Y-90804857D01*
X146311952Y-90900095D01*
X146264333Y-90947714D01*
X146169095Y-90995333D01*
X146073857Y-90995333D01*
X145978619Y-90947714D01*
X145931000Y-90900095D01*
X145883380Y-90804857D01*
X145883380Y-90566761D01*
X145931000Y-90423904D01*
X145883380Y-90090571D02*
X146883380Y-89852476D01*
X146169095Y-89662000D01*
X146883380Y-89471523D01*
X145883380Y-89233428D01*
X146216714Y-88423904D02*
X146883380Y-88423904D01*
X145835761Y-88662000D02*
X146550047Y-88900095D01*
X146550047Y-88281047D01*
%TO.C,SW3*%
X130325761Y-90995333D02*
X130373380Y-90852476D01*
X130373380Y-90614380D01*
X130325761Y-90519142D01*
X130278142Y-90471523D01*
X130182904Y-90423904D01*
X130087666Y-90423904D01*
X129992428Y-90471523D01*
X129944809Y-90519142D01*
X129897190Y-90614380D01*
X129849571Y-90804857D01*
X129801952Y-90900095D01*
X129754333Y-90947714D01*
X129659095Y-90995333D01*
X129563857Y-90995333D01*
X129468619Y-90947714D01*
X129421000Y-90900095D01*
X129373380Y-90804857D01*
X129373380Y-90566761D01*
X129421000Y-90423904D01*
X129373380Y-90090571D02*
X130373380Y-89852476D01*
X129659095Y-89662000D01*
X130373380Y-89471523D01*
X129373380Y-89233428D01*
X129373380Y-88947714D02*
X129373380Y-88328666D01*
X129754333Y-88662000D01*
X129754333Y-88519142D01*
X129801952Y-88423904D01*
X129849571Y-88376285D01*
X129944809Y-88328666D01*
X130182904Y-88328666D01*
X130278142Y-88376285D01*
X130325761Y-88423904D01*
X130373380Y-88519142D01*
X130373380Y-88804857D01*
X130325761Y-88900095D01*
X130278142Y-88947714D01*
%TO.C,SW2*%
X113815761Y-90995333D02*
X113863380Y-90852476D01*
X113863380Y-90614380D01*
X113815761Y-90519142D01*
X113768142Y-90471523D01*
X113672904Y-90423904D01*
X113577666Y-90423904D01*
X113482428Y-90471523D01*
X113434809Y-90519142D01*
X113387190Y-90614380D01*
X113339571Y-90804857D01*
X113291952Y-90900095D01*
X113244333Y-90947714D01*
X113149095Y-90995333D01*
X113053857Y-90995333D01*
X112958619Y-90947714D01*
X112911000Y-90900095D01*
X112863380Y-90804857D01*
X112863380Y-90566761D01*
X112911000Y-90423904D01*
X112863380Y-90090571D02*
X113863380Y-89852476D01*
X113149095Y-89662000D01*
X113863380Y-89471523D01*
X112863380Y-89233428D01*
X112958619Y-88900095D02*
X112911000Y-88852476D01*
X112863380Y-88757238D01*
X112863380Y-88519142D01*
X112911000Y-88423904D01*
X112958619Y-88376285D01*
X113053857Y-88328666D01*
X113149095Y-88328666D01*
X113291952Y-88376285D01*
X113863380Y-88947714D01*
X113863380Y-88328666D01*
%TO.C,SW1*%
X97305761Y-90995333D02*
X97353380Y-90852476D01*
X97353380Y-90614380D01*
X97305761Y-90519142D01*
X97258142Y-90471523D01*
X97162904Y-90423904D01*
X97067666Y-90423904D01*
X96972428Y-90471523D01*
X96924809Y-90519142D01*
X96877190Y-90614380D01*
X96829571Y-90804857D01*
X96781952Y-90900095D01*
X96734333Y-90947714D01*
X96639095Y-90995333D01*
X96543857Y-90995333D01*
X96448619Y-90947714D01*
X96401000Y-90900095D01*
X96353380Y-90804857D01*
X96353380Y-90566761D01*
X96401000Y-90423904D01*
X96353380Y-90090571D02*
X97353380Y-89852476D01*
X96639095Y-89662000D01*
X97353380Y-89471523D01*
X96353380Y-89233428D01*
X97353380Y-88328666D02*
X97353380Y-88900095D01*
X97353380Y-88614380D02*
X96353380Y-88614380D01*
X96496238Y-88709619D01*
X96591476Y-88804857D01*
X96639095Y-88900095D01*
%TD*%
M02*
